<?xml version="1.0" standalone="no"?>
<!DOCTYPE svg PUBLIC "-//W3C//DTD SVG 20010904//EN"
 "http://www.w3.org/TR/2001/REC-SVG-20010904/DTD/svg10.dtd">
<svg version="1.0" xmlns="http://www.w3.org/2000/svg"
 width="874.000000pt" height="874.000000pt" viewBox="0 0 874.000000 874.000000"
 preserveAspectRatio="xMidYMid meet">
<metadata>
Created by potrace 1.14, written by Peter Selinger 2001-2017
</metadata>
<g transform="translate(0.000000,874.000000) scale(0.100000,-0.100000)"
fill="#000000" stroke="none">
<path d="M3222 7722 c-32 -24 -27 -45 40 -182 51 -104 99 -240 112 -312 2 -15
7 -31 9 -35 6 -10 21 -123 31 -238 3 -27 6 -50 7 -50 0 0 2 -151 3 -336 1
-246 5 -341 14 -351 15 -18 40 -17 117 6 33 10 67 19 75 21 8 2 56 13 105 25
50 12 101 23 115 25 14 2 36 6 50 9 124 27 299 57 415 71 28 4 57 8 65 10 8 2
35 7 60 10 25 3 69 10 98 15 29 5 56 9 60 9 4 -1 9 0 12 1 3 1 16 3 30 5 25 3
96 12 160 20 173 22 490 22 591 0 30 -7 34 -2 29 40 -2 22 -50 108 -62 113 -4
2 -8 8 -8 14 0 10 -81 124 -130 183 -42 50 -242 248 -294 290 -27 22 -54 45
-60 50 -23 22 -283 213 -321 235 -22 13 -41 28 -43 32 -2 4 -10 8 -17 8 -8 0
-20 6 -27 13 -13 13 -271 147 -285 149 -8 1 -37 12 -78 29 -37 15 -210 71
-230 73 -11 2 -29 6 -40 9 -11 3 -31 8 -45 11 -48 9 -135 25 -170 31 -19 3
-109 8 -200 10 -148 4 -167 3 -188 -13z"/>
<path d="M39 7227 c-34 -46 -39 -97 -34 -327 2 -124 6 -238 8 -255 3 -16 8
-59 12 -95 4 -36 9 -74 11 -85 2 -10 6 -37 9 -60 3 -22 8 -47 10 -55 2 -8 7
-28 10 -45 6 -34 7 -39 34 -155 24 -105 65 -251 85 -308 8 -23 15 -46 16 -50
1 -22 186 -562 235 -687 39 -101 83 -211 113 -280 28 -65 187 -380 218 -432
10 -17 34 -57 53 -90 76 -130 270 -412 318 -461 7 -7 13 -16 13 -20 0 -4 15
-23 33 -44 17 -20 50 -57 72 -83 156 -185 400 -424 570 -561 33 -27 62 -51 65
-54 18 -21 337 -228 390 -253 8 -4 29 -16 45 -26 17 -11 52 -32 80 -46 27 -15
67 -39 90 -53 22 -14 41 -24 43 -23 1 1 14 -7 29 -19 32 -25 44 -25 63 -2 65
78 135 304 157 507 11 103 6 457 -8 531 -1 5 -1 11 0 14 1 3 4 20 5 38 2 18 9
39 16 47 12 14 47 14 70 0 5 -3 51 -6 101 -6 126 0 153 -15 168 -94 14 -76 5
-483 -13 -570 -2 -11 -7 -42 -10 -70 -4 -27 -9 -57 -11 -65 -2 -8 -7 -28 -10
-45 -21 -120 -117 -416 -147 -453 -6 -6 -8 -12 -5 -12 11 0 -114 -232 -179
-332 -55 -85 -212 -300 -233 -318 -3 -3 -31 -34 -61 -70 -30 -36 -65 -76 -77
-90 -12 -14 -30 -34 -40 -46 -10 -12 -50 -57 -90 -100 -180 -199 -253 -310
-266 -401 -7 -45 21 -86 69 -101 38 -12 360 -11 409 1 11 2 40 8 65 13 52 9
44 7 95 19 47 10 54 12 58 14 1 2 12 4 25 7 29 5 180 52 207 64 11 5 61 25
110 43 130 50 271 119 430 211 112 65 366 251 401 293 6 7 14 13 17 13 13 0
202 186 313 307 41 44 147 174 179 218 11 16 26 34 33 41 6 7 12 17 12 22 0 6
4 12 8 14 10 4 149 205 183 263 124 217 196 356 214 416 4 13 11 29 16 34 22
29 140 380 155 462 14 77 66 160 119 192 95 56 272 43 277 -21 4 -62 3 -76 -5
-113 -5 -22 -11 -51 -14 -65 -2 -14 -13 -59 -25 -100 -11 -41 -21 -82 -23 -90
-2 -8 -17 -58 -35 -110 -36 -108 -37 -112 -38 -124 0 -5 -4 -12 -9 -15 -4 -3
-14 -24 -22 -46 -22 -66 -181 -379 -200 -395 -3 -3 -28 -39 -56 -80 -27 -41
-52 -77 -55 -80 -4 -3 -13 -14 -21 -26 -17 -24 -87 -111 -109 -134 -19 -20
-50 -83 -50 -103 0 -14 63 -32 145 -42 17 -2 30 -4 30 -5 0 -8 511 -13 610 -6
78 6 197 17 225 21 14 3 48 7 75 9 28 3 61 8 75 11 14 2 41 7 60 10 19 3 43 8
52 11 9 3 32 6 50 8 18 2 51 8 73 14 22 6 51 13 65 16 20 4 107 28 185 50 6 1
30 8 55 15 83 24 315 104 324 112 6 5 16 9 24 9 15 0 93 32 267 110 39 17 77
35 85 40 8 5 44 23 80 41 145 72 456 271 527 338 12 12 24 21 27 21 16 0 270
248 347 340 26 31 65 80 88 110 22 30 44 60 48 65 14 17 119 179 126 195 4 8
17 31 28 50 43 70 179 354 179 373 0 2 8 22 17 43 9 22 18 44 19 49 2 6 19 57
39 115 19 58 38 114 40 125 3 11 14 51 25 89 24 84 22 246 -4 345 -21 78 -65
191 -82 211 -7 8 -12 17 -12 20 1 12 -36 80 -44 80 -4 0 -8 6 -8 13 0 7 -37
62 -82 122 -79 106 -205 239 -278 294 -19 14 -48 38 -65 53 -16 16 -35 28 -42
28 -6 0 -13 4 -15 8 -4 12 -137 99 -233 154 -101 57 -249 126 -370 171 -137
51 -403 125 -510 141 -16 2 -30 5 -30 6 0 3 -35 9 -145 24 -14 2 -38 6 -55 9
-28 6 -60 10 -160 21 -22 2 -76 8 -120 11 -44 4 -96 9 -115 10 -311 27 -1143
22 -1517 -9 -46 -4 -91 -9 -100 -10 -10 -2 -43 -7 -73 -11 -46 -6 -230 -39
-280 -50 -8 -2 -80 -17 -160 -34 -80 -16 -198 -41 -262 -55 -64 -14 -127 -28
-140 -30 -13 -3 -34 -7 -48 -10 -14 -3 -47 -10 -75 -16 -50 -10 -75 -16 -117
-25 -13 -3 -39 -8 -58 -12 -19 -4 -37 -8 -40 -8 -4 -1 -33 -7 -100 -21 -18 -3
-207 -44 -235 -50 -11 -2 -31 -6 -45 -9 -14 -3 -34 -7 -45 -9 -144 -30 -341
-66 -385 -72 -19 -2 -51 -6 -70 -9 -174 -28 -466 -23 -637 11 -13 2 -35 6 -50
9 -16 3 -40 8 -55 11 -15 3 -31 6 -35 6 -5 0 -19 5 -33 10 -14 6 -34 11 -45
13 -11 2 -27 6 -35 8 -245 63 -430 144 -615 268 -60 40 -117 79 -125 86 -205
164 -228 184 -339 294 -84 83 -207 227 -286 334 -41 55 -156 242 -186 303 -28
55 -78 113 -97 112 -4 0 -14 -11 -23 -23z m6859 -1743 c45 -19 172 -150 200
-208 48 -96 27 -184 -68 -276 -98 -95 -234 -129 -328 -81 -75 38 -170 170
-192 266 -9 40 3 88 28 118 8 9 12 17 9 17 -8 0 18 33 54 69 45 45 93 82 116
88 13 3 23 9 23 15 0 5 3 7 8 5 4 -3 16 -1 27 3 24 10 79 3 123 -16z m-3006
-168 c48 -11 126 -94 120 -127 -1 -4 -3 -17 -6 -30 -2 -13 -9 -37 -16 -54 -6
-16 -11 -31 -11 -32 0 -2 -6 -20 -14 -42 -33 -95 -50 -327 -33 -453 5 -35 10
-76 12 -93 2 -16 10 -50 17 -75 7 -25 13 -52 14 -60 1 -8 5 -22 9 -31 38 -84
-31 -178 -137 -187 -52 -4 -53 -3 -109 49 -56 53 -109 141 -122 204 -11 53
-16 75 -21 98 -15 61 -19 138 -19 307 0 163 3 192 22 243 47 131 202 306 257
291 6 -1 22 -5 37 -8z m1123 -47 c34 -24 55 -56 55 -86 0 -8 -17 -54 -39 -102
-46 -101 -70 -170 -79 -226 -9 -53 -9 -259 0 -314 9 -51 76 -252 89 -266 15
-15 10 -83 -6 -97 -9 -7 -21 -18 -28 -23 -24 -21 -91 -47 -126 -50 -49 -3 -85
17 -119 68 -49 74 -114 256 -128 358 -2 14 -7 51 -12 82 -16 100 -5 348 19
423 5 17 12 42 14 55 3 13 9 25 15 27 6 2 8 7 5 12 -10 16 92 107 154 137 76
37 133 38 186 2z m1093 -611 c26 -24 72 -64 102 -88 30 -25 57 -48 58 -52 2
-5 10 -8 18 -8 8 0 14 -3 14 -7 0 -16 111 -70 180 -88 8 -2 42 -12 75 -21 70
-19 90 -23 127 -29 15 -2 35 -6 45 -9 18 -6 90 -15 173 -22 65 -5 297 -5 350
1 25 3 62 7 83 9 154 16 490 109 531 147 6 5 18 9 27 9 9 0 22 7 29 15 6 8 15
14 18 13 10 -2 106 46 114 57 4 6 8 7 8 3 0 -4 16 4 36 17 33 23 93 45 120 45
6 0 24 -10 38 -21 23 -18 27 -27 23 -58 -3 -20 -15 -58 -28 -86 -13 -27 -22
-53 -21 -57 1 -5 -2 -8 -8 -8 -5 0 -10 -6 -10 -13 0 -8 -9 -24 -20 -37 -11
-13 -20 -27 -20 -31 0 -12 -107 -137 -148 -174 -65 -57 -157 -117 -237 -155
-76 -35 -114 -51 -125 -52 -3 0 -21 -6 -40 -13 -50 -19 -162 -46 -168 -41 -2
3 -12 1 -21 -3 -49 -27 -370 -30 -491 -6 -14 3 -41 8 -60 11 -117 18 -384 102
-506 159 -98 45 -156 86 -239 169 -67 67 -89 92 -160 182 -16 20 -36 44 -44
52 -15 15 -37 103 -36 142 1 21 30 90 38 90 1 0 19 6 41 14 47 16 65 9 134
-56z"/>
<path d="M6992 2148 c-7 -7 -12 -9 -12 -4 0 4 -12 -1 -27 -12 -31 -21 -271
-130 -348 -157 -27 -10 -55 -22 -61 -27 -6 -4 -19 -9 -30 -11 -10 -2 -26 -7
-34 -10 -89 -33 -259 -86 -305 -94 -16 -3 -38 -9 -47 -14 -10 -5 -18 -8 -18
-5 0 3 -15 0 -32 -5 -18 -5 -44 -11 -58 -14 -14 -3 -35 -7 -47 -10 -54 -12
-69 -15 -108 -20 -22 -3 -47 -8 -55 -10 -8 -2 -37 -7 -65 -10 -27 -2 -66 -7
-85 -10 -19 -3 -56 -8 -82 -10 -57 -4 -114 -22 -140 -44 -11 -9 -42 -54 -70
-101 -47 -78 -103 -153 -153 -206 -66 -70 -151 -202 -161 -250 -11 -54 28 -85
141 -111 28 -6 280 -6 335 1 200 24 417 88 585 174 39 20 73 35 78 34 4 -1 7
3 7 8 0 6 5 10 10 10 20 0 205 126 290 198 87 72 231 217 285 285 17 21 35 44
40 50 19 23 91 122 132 182 59 87 81 129 89 169 6 33 4 36 -18 36 -13 0 -29
-5 -36 -12z"/>
</g>
</svg>
