<svg width="437" height="337" viewBox="0 0 437 337" fill="none" xmlns="http://www.w3.org/2000/svg">
<path d="M421.471 118.326C429.466 128.547 436.184 138.972 436.93 152.112C437.101 155.118 436.992 158.114 436.214 161.026C427.744 192.745 412.642 220.393 386.374 240.961C368.351 255.074 347.986 264.521 326.221 271.597C304.105 278.786 281.616 282.215 258.497 281.507C251.278 281.286 243.9 281.402 236.597 279.444C236.484 276.398 238.102 274.527 239.711 272.685C255.803 254.258 264.947 232.565 269.636 208.813C270.716 203.34 268.59 201.663 263.227 201.737C255.558 201.843 251.773 205.249 249.931 212.732C245.401 231.139 237.557 248.316 227.121 264.044C204.165 298.642 173.782 323.682 132.785 334.044C124.093 336.24 115.048 336.945 106.051 336.364C100.111 335.98 98.5118 333.164 100.736 327.627C102.226 323.917 104.42 320.637 107.135 317.584C117.642 305.768 128.523 294.232 137.333 281.025C153.079 257.421 159.101 231.312 157.098 203.169C156.824 199.323 155.235 197.32 151.157 197.613C147.498 197.876 143.873 197.403 140.305 196.442C138.426 199.151 138.984 201.924 139.198 204.748C140.248 218.581 140.45 232.372 135.617 245.685C134.439 248.93 133.395 252.308 130.443 255.314C117.321 247.25 103.44 240.454 91.4162 230.52C57.3788 202.396 33.9003 167.056 19.4721 125.568C12.9228 106.735 6.02523 87.991 2.5332 68.2226C0.379785 56.0323 -0.301612 43.7941 0.117059 31.4649C0.202538 28.947 0.986047 26.6006 2.6119 24.624C5.53152 25.1299 6.50451 27.4251 7.53649 29.4161C18.9427 51.4209 35.7286 68.4165 56.2165 82.0046C68.6744 90.2671 82.7062 94.1368 97.1529 97.0553C114.523 100.564 131.563 98.0576 148.53 94.5879C173.903 89.399 199.195 83.8163 224.567 78.6248C236.974 76.0862 249.642 75.4956 262.256 75.1593C282.567 74.6178 302.936 74.3477 323.171 76.2003C354.557 79.074 384.552 86.4163 409.78 106.96C413.933 110.342 417.858 113.903 421.471 118.326ZM318.25 164.267C313.245 160.956 308.566 157.274 304.321 152.994C302.575 151.234 300.306 149.968 297.568 151.608C295.032 153.126 294.48 155.459 294.829 158.056C295.069 159.836 295.27 161.958 296.325 163.236C302.922 171.227 308.727 179.756 319.136 184.043C339.372 192.379 359.871 196.644 381.188 189.791C395.637 185.147 407.068 176.263 412.952 161.598C413.723 159.675 415.06 157.367 412.938 155.592C410.905 153.89 408.549 154.581 406.429 155.812C395.16 162.352 383.412 167.252 370.328 169.278C352.688 172.009 335.63 170.831 318.25 164.267ZM180.156 165.126C181.299 170.634 183.476 175.507 188.055 179.131C190.876 181.364 193.436 181.139 196.225 179.202C198.872 177.365 200.507 175.536 199.403 171.793C195.257 157.75 194.68 143.666 200.159 129.763C201.607 126.088 199.343 124.167 196.904 122.316C194.128 120.211 191.215 120.269 188.735 122.653C183.095 128.075 178.773 134.195 178.629 142.511C178.503 149.826 178.392 157.119 180.156 165.126ZM251.724 178.344C253.207 176.48 252.638 174.54 251.796 172.691C245.514 158.909 244.907 145.237 252.228 131.57C253.389 129.403 254.297 126.687 252.082 124.614C249.842 122.518 247.196 121.368 243.878 122.526C237.546 124.736 233.118 128.944 231.92 135.445C229.467 148.754 230.443 161.829 235.921 174.442C239.611 182.937 243.415 184.164 251.724 178.344ZM325.416 124.797C324.368 130.229 331.549 140.745 337.103 141.913C343.731 143.306 351.147 139.463 354.976 132.651C357.59 128 356.402 123.527 351.101 118.035C350.407 117.317 349.753 116.559 349.047 115.853C344.208 111.017 339.438 110.396 333.817 114.282C330.246 116.75 327.173 119.824 325.416 124.797Z" fill="#F9FEED"/>
<path d="M205.544 69.6921C195.152 71.6194 185.174 73.4688 175.483 76.493C171.923 77.6043 171.296 75.6824 171.26 73.0636C171.174 66.7396 171.204 60.4129 171.268 54.0881C171.436 37.6195 169.92 21.5796 161.511 6.80149C158.522 1.55042 159.79 0.0814918 165.774 0.00815775C193.288 -0.328695 217.056 9.78806 238.388 26.3628C250.248 35.5783 261.383 45.587 269.137 58.7446C270.204 60.5549 271.654 62.2749 271.153 64.888C249.038 61.5881 227.595 66.7724 205.544 69.6921Z" fill="#F9FEED"/>
<path d="M345.641 292.538C331.068 313.022 312.656 327.673 288.391 334.141C279.655 336.47 270.678 337.001 261.664 336.544C259.859 336.452 258.036 335.99 256.299 335.45C252.701 334.331 251.531 332.084 253.457 328.591C255.476 324.931 257.782 321.469 260.634 318.407C264.061 314.729 267.112 310.767 269.346 306.271C271.144 302.652 273.573 301.182 277.845 300.805C302.639 298.622 326.067 291.492 348.238 280.197C349.403 279.603 350.473 278.693 352.626 278.925C352.213 284.367 348.356 288 345.641 292.538Z" fill="#F9FEED"/>
</svg>
